<svg xmlns="http://www.w3.org/2000/svg" viewBox="0 0 894.24 249.15"><defs><style>.cls-1{fill:#002a46;}.cls-2{fill:#038edb;}</style></defs><g id="Capa_2" data-name="Capa 2"><g id="Capa_1-2" data-name="Capa 1"><path class="cls-1" d="M113.05,5.35a70.77,70.77,0,0,1,21.68,14.54,68,68,0,0,1,14.68,21.54,65.71,65.71,0,0,1,5.35,26.34,66.34,66.34,0,0,1-20,47.75,71.64,71.64,0,0,1-21.68,14.4,65.47,65.47,0,0,1-26.34,5.36H65.31L44.45,96.86H86.71A28.31,28.31,0,0,0,98.1,94.53a26.53,26.53,0,0,0,9.19-6.59,33.11,33.11,0,0,0,6.17-10.15,35.21,35.21,0,0,0,2.33-13,30.31,30.31,0,0,0-2.33-11.67,36.35,36.35,0,0,0-6.17-10A31,31,0,0,0,98.1,36,24.64,24.64,0,0,0,86.71,33.2H38.14V192.07H0V0H86.71A65.47,65.47,0,0,1,113.05,5.35Z"/><path class="cls-1" d="M306.5,54.88V192.07H270.55V123.3a36.54,36.54,0,0,0-3-14.85,38.62,38.62,0,0,0-35.39-23.11,36.24,36.24,0,0,0-14.82,3,42.61,42.61,0,0,0-12.21,8.12,36.33,36.33,0,0,0-8.37,12.12,37.61,37.61,0,0,0-3,15,36,36,0,0,0,3,14.6,38.25,38.25,0,0,0,8.37,12.12,41.08,41.08,0,0,0,12.21,8.26,36.24,36.24,0,0,0,14.82,3,32.26,32.26,0,0,0,14.54-3H247v.55l13.72,24.42-.27.27q-13.45,10.44-33.2,10.43a69.32,69.32,0,0,1-27.44-5.49,70.37,70.37,0,0,1-22.5-15.09A72.25,72.25,0,0,1,162,151.19,70.46,70.46,0,0,1,162,96a71.8,71.8,0,0,1,37.73-37.73,67.88,67.88,0,0,1,27.44-5.63q14.27,0,25,5.31a52.11,52.11,0,0,1,18.38,15.37V54.88Z"/><path class="cls-1" d="M474.42,54.88V176.43a79,79,0,0,1-6.86,28.68,73.75,73.75,0,0,1-39.51,38.41,73.2,73.2,0,0,1-28.54,5.63,75.6,75.6,0,0,1-65.3-37.32l-.27-.55.27-.27,30.18-13.17a31.93,31.93,0,0,0,7,8.64,41.18,41.18,0,0,0,9.05,6,49.3,49.3,0,0,0,9.88,3.56,40.89,40.89,0,0,0,9.74,1.24,34.51,34.51,0,0,0,14-3,36.9,36.9,0,0,0,12.21-8.81,43.65,43.65,0,0,0,8.5-13.74,48.1,48.1,0,0,0,3.16-17.88V123.56a36,36,0,0,0-3.16-15,38.23,38.23,0,0,0-8.5-12.1,42.06,42.06,0,0,0-12.35-8.11,38.42,38.42,0,0,0-29.91,0,39.88,39.88,0,0,0-12.21,8.15,38.08,38.08,0,0,0-11.25,27.22,36.71,36.71,0,0,0,3,14.92,39.29,39.29,0,0,0,8.23,12.16,38.74,38.74,0,0,0,12.21,8.3,37.26,37.26,0,0,0,15,3,34,34,0,0,0,14.81-3h.28l.27.27,13.72,24.24-.27.27q-13.45,10.89-33.2,10.89a70.51,70.51,0,0,1-28-5.63,70.71,70.71,0,0,1-38-37.86,70.8,70.8,0,0,1,0-55.29,72.42,72.42,0,0,1,15.23-22.5,71.64,71.64,0,0,1,22.78-15.23,70.51,70.51,0,0,1,28-5.63q28,0,43.35,21V54.88Z"/><path class="cls-1" d="M559.21,52.68a68.54,68.54,0,0,1,27.71,5.63A71.8,71.8,0,0,1,624.65,96a69.68,69.68,0,0,1,0,54.88,71.74,71.74,0,0,1-37.73,37.72,71,71,0,0,1-55.43,0,71.67,71.67,0,0,1-37.72-37.72,69.68,69.68,0,0,1,0-54.88,71.74,71.74,0,0,1,37.72-37.73A68.59,68.59,0,0,1,559.21,52.68Zm0,108.94a27.67,27.67,0,0,0,12.76-3,33.55,33.55,0,0,0,10.42-8.37,41.2,41.2,0,0,0,7.14-12.35,43.45,43.45,0,0,0,2.6-15.23,41.91,41.91,0,0,0-2.6-14.68,37.8,37.8,0,0,0-7.14-12.07A35.54,35.54,0,0,0,572,87.81a27.55,27.55,0,0,0-12.76-3,28.33,28.33,0,0,0-12.9,3,35.1,35.1,0,0,0-10.56,8.09A37.8,37.8,0,0,0,528.61,108a41.68,41.68,0,0,0-2.6,14.68,43.22,43.22,0,0,0,2.6,15.23,41.2,41.2,0,0,0,7.14,12.35,33.17,33.17,0,0,0,10.56,8.37A28.46,28.46,0,0,0,559.21,161.62Z"/><path class="cls-2" d="M650.58,0l40.06,80.67L661,105.37,604.21,0Zm85.61,0h46.92L713.42,128.42v63.65H673.35V128.42l-.27-.55,20.3-41.44Z"/><path class="cls-2" d="M894.24,54.88V192.07h-36V123.3a36.54,36.54,0,0,0-3-14.85,38.55,38.55,0,0,0-20.72-20.22,38,38,0,0,0-14.68-2.89,36.24,36.24,0,0,0-14.82,3,42.61,42.61,0,0,0-12.21,8.12,36.33,36.33,0,0,0-8.37,12.12,37.61,37.61,0,0,0-3,15,36,36,0,0,0,3,14.6,38.25,38.25,0,0,0,8.37,12.12,41.08,41.08,0,0,0,12.21,8.26,36.24,36.24,0,0,0,14.82,3,32.23,32.23,0,0,0,14.54-3h.28v.55l13.72,24.42-.28.27q-13.44,10.44-33.2,10.43a69.32,69.32,0,0,1-27.44-5.49A70.37,70.37,0,0,1,765,173.69a72.42,72.42,0,0,1-15.23-22.5,70.46,70.46,0,0,1,0-55.15A71.8,71.8,0,0,1,787.5,58.31a67.88,67.88,0,0,1,27.44-5.63q14.26,0,25,5.31a52.11,52.11,0,0,1,18.38,15.37V54.88Z"/></g></g></svg>